<?xml version="1.0" encoding="UTF-8"?>
<svg id="_레이어_1" xmlns="http://www.w3.org/2000/svg" version="1.1" viewBox="0 0 871.44 1564.11">
  <!-- Generator: Adobe Illustrator 29.8.2, SVG Export Plug-In . SVG Version: 2.1.1 Build 3)  -->
  <defs>
    <style>
      .st0 {
        stroke: #05baae;
        stroke-width: 14px;
      }

      .st0, .st1, .st2, .st3 {
        stroke-miterlimit: 10;
      }

      .st0, .st4 {
        fill: #c4e6e8;
      }

      .st1 {
        stroke-linecap: round;
        stroke-width: 5px;
      }

      .st1, .st2, .st3 {
        stroke: #847e7e;
      }

      .st1, .st3 {
        fill: none;
        opacity: .6;
      }

      .st5, .st2 {
        fill: #05baae;
      }

      .st6 {
        fill: #fef6f5;
      }

      .st3 {
        stroke-width: 7px;
      }
    </style>
  </defs>
  <path class="st4" d="M255.75,1151.51v80.74s-111.14,28.57-51.66,54.65c0,0-22.21,24.84,17.07,24.84,0,0-12.38,39.75,17.36,24.84,29.74-14.91,126.79,3.73,126.79-78.26v-86.95l-109.57-19.87Z"/>
  <path class="st4" d="M485.47,1151.51v80.74s-111.14,28.57-51.66,54.65c0,0-22.21,24.84,17.07,24.84,0,0-12.38,39.75,17.36,24.84,29.74-14.91,126.79,3.73,126.79-78.26v-86.95l-109.57-19.87Z"/>
  <path class="st0" d="M864.44,799.79c0,274.12-191.94,389.5-428.72,389.5S7,1072.33,7,798.21,198.95,196.6,435.72,196.6s428.72,329.07,428.72,603.19Z"/>
  <ellipse class="st5" cx="264.25" cy="495.27" rx="141.13" ry="96.01" transform="translate(-296.96 508.12) rotate(-63.23)"/>
  <ellipse class="st2" cx="697.42" cy="795.81" rx="96.01" ry="141.13" transform="translate(-158.33 173.39) rotate(-12.74)"/>
  <ellipse class="st5" cx="199.35" cy="935.11" rx="96.01" ry="141.13" transform="translate(-201.31 66.98) rotate(-12.74)"/>
  <ellipse class="st5" cx="109.43" cy="712.17" rx="37.45" ry="25.48" transform="translate(-608.4 774.41) rotate(-86.22)"/>
  <ellipse class="st5" cx="671.87" cy="472.12" rx="25.48" ry="37.45" transform="translate(-133.89 313.81) rotate(-23.98)"/>
  <ellipse class="st5" cx="570.89" cy="1059.56" rx="37.45" ry="25.48" transform="translate(-616.39 1256.87) rotate(-71.12)"/>
  <ellipse class="st5" cx="423.27" cy="754.5" rx="54.17" ry="36.85" transform="translate(-357.49 1127.11) rotate(-86.22)"/>
  <polyline class="st1" points="570.89 242.55 570.89 308.78 556.32 333.13 543.9 353.87"/>
  <line class="st1" x1="513.77" y1="342.13" x2="556.32" y2="333.13"/>
  <line class="st1" x1="503.04" y1="333.13" x2="521.43" y2="347.3"/>
  <polyline class="st1" points="570.89 292.35 583.72 311.6 598.71 301.97"/>
  <polyline class="st1" points="67.72 1014.89 187.98 935.11 196.34 888.5 199.35 871.66 100.65 815.74"/>
  <polyline class="st1" points="236.23 861.7 219.57 872.9 196.34 888.5"/>
  <line class="st1" x1="231.31" y1="881.62" x2="219.57" y2="872.9"/>
  <polyline class="st1" points="128.97 974.26 100.65 909.96 83.89 922.21"/>
  <polyline class="st3" points="714.96 935.11 714.96 962.04 714.96 985.02 771.64 1052.43"/>
  <line class="st3" x1="766.73" y1="909.96" x2="714.96" y2="952.85"/>
  <line class="st3" x1="750.19" y1="900.77" x2="796.12" y2="915.32"/>
  <polyline class="st3" points="730.6 1003.62 681.26 993.77 653.68 1014.89"/>
  <path class="st6" d="M204.1,1258.74l5.62,15.32s-18.66,7.37-18.38-3.06c.28-10.43,12.77-12.26,12.77-12.26Z"/>
  <path class="st6" d="M215.85,1288.63l5.62,15.32s-18.66,7.37-18.38-3.06,12.77-12.26,12.77-12.26Z"/>
  <path class="st6" d="M234.23,1315.08l5.62,15.32s-18.66,7.37-18.38-3.06,12.77-12.26,12.77-12.26Z"/>
  <path class="st6" d="M465.94,1315.08l5.62,15.32s-18.66,7.37-18.38-3.06,12.77-12.26,12.77-12.26Z"/>
  <path class="st6" d="M447.56,1288.63l5.62,15.32s-18.66,7.37-18.38-3.06,12.77-12.26,12.77-12.26Z"/>
  <path class="st6" d="M434.79,1258.74l5.62,15.32s-18.66,7.37-18.38-3.06,12.77-12.26,12.77-12.26Z"/>
</svg>