<svg width="352" height="155" viewBox="0 0 352 155" fill="none" xmlns="http://www.w3.org/2000/svg">
<g clip-path="url(#clip0_396_14187)">
<rect x="352" width="155" height="352" rx="8" transform="rotate(90 352 0)" fill="#EFEFEF"/>
<path d="M284.662 24H302V134.768H284.662M284.662 24V70.7151H256.088M284.662 24H256.088M253.76 70.7151H256.088M256.088 24V70.7151M256.088 24H197.252M246.215 70.7151H197.252M194.764 70.7151H197.252M197.252 70.7151V24M197.252 24H146.684M186.577 70.7151H156.798M148.771 70.7151H146.684M120.357 55.2237V70.7151H146.684M120.357 41.6586V24M120.357 24H146.684M120.357 24H102.698M146.684 24V70.7151M102.698 24H48.9999V70.7151M102.698 24V70.7151H99.327M91.8622 70.7151H58.07M52.2032 70.7151H48.9999M48.9999 70.7151V88.3738M50.7657 88.3738H48.9999M48.9999 88.3738V134.768H131.514M119.394 88.3738H58.07M126.939 88.3738H131.514M134.564 88.3738H131.514M142.43 88.3738H158.724M160.651 88.3738H158.724M158.724 88.3738V134.768M158.724 134.768H131.514M158.724 134.768H183.125M131.514 134.768V88.3738M240.355 88.3738H284.662V134.768M284.662 134.768H229.279M229.279 134.768V88.3738H232.65H226.068M229.279 134.768H183.125M218.121 88.3738H183.125M168.356 88.3738H183.125M183.125 88.3738V134.768" stroke="#8F8F8F"/>
<path d="M120.276 42.1406H126.377C126.377 47.3419 122.31 48.3211 120.276 48.1606V42.1406Z" stroke="#8F8F8F"/>
<path d="M120.357 54.999H126.457C126.457 49.7978 122.39 48.8185 120.357 48.979V54.999Z" stroke="#8F8F8F"/>
<path d="M253.84 70.8756H245.974C245.974 64.1332 251.218 63.3038 253.84 63.7318V70.8756Z" stroke="#8F8F8F"/>
<path d="M99.5679 70.7276H91.7018C91.7018 63.9852 96.9458 63.1558 99.5679 63.5839V70.7276Z" stroke="#8F8F8F"/>
<path d="M232.008 88.3735H239.874C239.874 95.1158 234.63 95.9453 232.008 95.5172V88.3735Z" stroke="#8F8F8F"/>
<path d="M161.052 88.3735H168.918C168.918 95.1158 163.674 95.9453 161.052 95.5172V88.3735Z" stroke="#8F8F8F"/>
<path d="M134.725 88.3735H142.591C142.591 95.1158 137.347 95.9453 134.725 95.5172V88.3735Z" stroke="#8F8F8F"/>
<path d="M51.0867 88.3735H58.9528C58.9528 95.1158 53.7087 95.9453 51.0867 95.5172V88.3735Z" stroke="#8F8F8F"/>
<path d="M126.377 88.3735H118.511C118.511 95.1158 123.755 95.9453 126.377 95.5172V88.3735Z" stroke="#8F8F8F"/>
<path d="M226.068 88.3735H218.202C218.202 95.1158 223.446 95.9453 226.068 95.5172V88.3735Z" stroke="#8F8F8F"/>
<path d="M186.898 70.7276H194.764C194.764 63.9852 189.52 63.1558 186.898 63.5839V70.7276Z" stroke="#8F8F8F"/>
<path d="M149.012 70.8883H156.878C156.878 64.1459 151.634 63.3165 149.012 63.7445V70.8883Z" stroke="#8F8F8F"/>
<path d="M52.0867 70.7276H59.9528C59.9528 63.9852 54.7087 63.1558 52.0867 63.5839V70.7276Z" stroke="#8F8F8F"/>
<path d="M18.7021 28.1465C16.5049 28.1465 14.9375 26.96 14.8789 25.2314H16.5195C16.5781 26.1689 17.501 26.7549 18.6875 26.7549C19.9619 26.7549 20.8994 26.0518 20.8994 25.0264C20.8994 23.9863 20.0205 23.2246 18.5117 23.2246H17.6035V21.9062H18.5117C19.7129 21.9062 20.5625 21.2324 20.5625 20.2217C20.5625 19.2549 19.8447 18.5957 18.7168 18.5957C17.6475 18.5957 16.71 19.1816 16.666 20.1484H15.1133C15.1572 18.4199 16.7539 17.248 18.7314 17.248C20.8115 17.248 22.1299 18.5664 22.1152 20.1338C22.1299 21.335 21.3828 22.2139 20.2402 22.4922V22.5654C21.6904 22.7705 22.5254 23.7373 22.5254 25.085C22.5254 26.8574 20.8994 28.1465 18.7021 28.1465ZM23.9443 28V17.3945H30.5215V18.7861H25.5557V21.9941H30.0527V23.3711H25.5557V28H23.9443Z" fill="#05BAAE"/>
<path d="M72.0547 43.6641V47.2656H71.3203V43.6641H72.0547ZM72.0625 47.6016V49.3516H68.2031V50H72.2969V50.5938H67.4844V48.7891H71.3281V48.1875H67.4609V47.6016H72.0625ZM68.8047 44.3906C68.7969 45.3281 69.4766 46.1797 70.5469 46.5156L70.1797 47.0938C69.3633 46.8281 68.75 46.2734 68.4375 45.5625C68.1172 46.3281 67.4922 46.9375 66.6562 47.2266L66.2812 46.6406C67.375 46.2734 68.0469 45.3594 68.0469 44.3906V43.8516H68.8047V44.3906ZM74.1953 47.8594V48.6016H77.4844V47.8594H78.2266V50.5781H73.4609V47.8594H74.1953ZM74.1953 49.9844H77.4844V49.1797H74.1953V49.9844ZM79.0547 46.8047V47.4219H72.6719V46.8047H79.0547ZM76.2422 44.0391C76.2422 44.8438 77.3594 45.625 78.7031 45.7891L78.4375 46.375C77.3008 46.2148 76.3125 45.6797 75.8672 44.9375C75.4102 45.6836 74.418 46.2148 73.2969 46.375L73.0156 45.7891C74.375 45.6172 75.4844 44.8672 75.4844 44.0391V43.7422H76.2422V44.0391ZM80.7812 50V49.375L82.7422 47.3984C83.3594 46.75 83.6719 46.3906 83.6719 45.8984C83.6719 45.3438 83.2188 44.9844 82.625 44.9844C82 44.9844 81.5938 45.3828 81.5938 45.9844H80.7812C80.7734 44.9531 81.5625 44.2656 82.6406 44.2656C83.7344 44.2656 84.4844 44.9531 84.4922 45.875C84.4844 46.5078 84.1875 47.0078 83.125 48.0547L81.9766 49.2188V49.2656H84.5859V50H80.7812Z" fill="black"/>
<path d="M88.0547 108.664V112.266H87.3203V108.664H88.0547ZM88.0625 112.602V114.352H84.2031V115H88.2969V115.594H83.4844V113.789H87.3281V113.188H83.4609V112.602H88.0625ZM84.8047 109.391C84.7969 110.328 85.4766 111.18 86.5469 111.516L86.1797 112.094C85.3633 111.828 84.75 111.273 84.4375 110.562C84.1172 111.328 83.4922 111.938 82.6562 112.227L82.2812 111.641C83.375 111.273 84.0469 110.359 84.0469 109.391V108.852H84.8047V109.391ZM90.1953 112.859V113.602H93.4844V112.859H94.2266V115.578H89.4609V112.859H90.1953ZM90.1953 114.984H93.4844V114.18H90.1953V114.984ZM95.0547 111.805V112.422H88.6719V111.805H95.0547ZM92.2422 109.039C92.2422 109.844 93.3594 110.625 94.7031 110.789L94.4375 111.375C93.3008 111.215 92.3125 110.68 91.8672 109.938C91.4102 110.684 90.418 111.215 89.2969 111.375L89.0156 110.789C90.375 110.617 91.4844 109.867 91.4844 109.039V108.742H92.2422V109.039ZM98.9297 109.344V115H98.0625V110.203H98.0312L96.6797 111.086V110.266L98.0859 109.344H98.9297Z" fill="black"/>
<path d="M203.055 108.664V112.266H202.32V108.664H203.055ZM203.062 112.602V114.352H199.203V115H203.297V115.594H198.484V113.789H202.328V113.188H198.461V112.602H203.062ZM199.805 109.391C199.797 110.328 200.477 111.18 201.547 111.516L201.18 112.094C200.363 111.828 199.75 111.273 199.438 110.562C199.117 111.328 198.492 111.938 197.656 112.227L197.281 111.641C198.375 111.273 199.047 110.359 199.047 109.391V108.852H199.805V109.391ZM205.195 112.859V113.602H208.484V112.859H209.227V115.578H204.461V112.859H205.195ZM205.195 114.984H208.484V114.18H205.195V114.984ZM210.055 111.805V112.422H203.672V111.805H210.055ZM207.242 109.039C207.242 109.844 208.359 110.625 209.703 110.789L209.438 111.375C208.301 111.215 207.312 110.68 206.867 109.938C206.41 110.684 205.418 111.215 204.297 111.375L204.016 110.789C205.375 110.617 206.484 109.867 206.484 109.039V108.742H207.242V109.039ZM213.789 115.078C212.617 115.078 211.781 114.445 211.75 113.523H212.625C212.656 114.023 213.148 114.336 213.781 114.336C214.461 114.336 214.961 113.961 214.961 113.414C214.961 112.859 214.492 112.453 213.688 112.453H213.203V111.75H213.688C214.328 111.75 214.781 111.391 214.781 110.852C214.781 110.336 214.398 109.984 213.797 109.984C213.227 109.984 212.727 110.297 212.703 110.812H211.875C211.898 109.891 212.75 109.266 213.805 109.266C214.914 109.266 215.617 109.969 215.609 110.805C215.617 111.445 215.219 111.914 214.609 112.062V112.102C215.383 112.211 215.828 112.727 215.828 113.445C215.828 114.391 214.961 115.078 213.789 115.078Z" fill="black"/>
<path d="M254.055 108.664V112.266H253.32V108.664H254.055ZM254.062 112.602V114.352H250.203V115H254.297V115.594H249.484V113.789H253.328V113.188H249.461V112.602H254.062ZM250.805 109.391C250.797 110.328 251.477 111.18 252.547 111.516L252.18 112.094C251.363 111.828 250.75 111.273 250.438 110.562C250.117 111.328 249.492 111.938 248.656 112.227L248.281 111.641C249.375 111.273 250.047 110.359 250.047 109.391V108.852H250.805V109.391ZM256.195 112.859V113.602H259.484V112.859H260.227V115.578H255.461V112.859H256.195ZM256.195 114.984H259.484V114.18H256.195V114.984ZM261.055 111.805V112.422H254.672V111.805H261.055ZM258.242 109.039C258.242 109.844 259.359 110.625 260.703 110.789L260.438 111.375C259.301 111.215 258.312 110.68 257.867 109.938C257.41 110.684 256.418 111.215 255.297 111.375L255.016 110.789C256.375 110.617 257.484 109.867 257.484 109.039V108.742H258.242V109.039ZM264.703 115.078C263.633 115.078 262.828 114.422 262.789 113.523H263.625C263.672 114.008 264.133 114.359 264.703 114.359C265.391 114.359 265.883 113.859 265.883 113.188C265.883 112.5 265.375 112 264.664 111.992C264.211 111.992 263.867 112.141 263.672 112.492H262.859L263.227 109.344H266.43V110.078H263.938L263.75 111.664H263.805C264.039 111.438 264.438 111.281 264.867 111.281C265.93 111.281 266.719 112.07 266.719 113.164C266.719 114.281 265.883 115.078 264.703 115.078Z" fill="black"/>
<path d="M136.625 44.875C136.625 44.7092 136.691 44.5503 136.808 44.4331C136.925 44.3158 137.084 44.25 137.25 44.25H139.125C139.291 44.25 139.45 44.3158 139.567 44.4331C139.684 44.5503 139.75 44.7092 139.75 44.875V50.1875C139.75 50.6019 139.585 50.9993 139.292 51.2924C138.999 51.5854 138.602 51.75 138.188 51.75H132.25C132.084 51.75 131.925 51.6842 131.808 51.5669C131.691 51.4497 131.625 51.2908 131.625 51.125V49.25C131.625 49.0842 131.691 48.9253 131.808 48.8081C131.925 48.6908 132.084 48.625 132.25 48.625H134.125V47.375C134.125 47.2092 134.191 47.0503 134.308 46.9331C134.425 46.8158 134.584 46.75 134.75 46.75H136.625V44.875ZM139.125 44.875H137.25V46.75C137.25 46.9158 137.184 47.0747 137.067 47.1919C136.95 47.3092 136.791 47.375 136.625 47.375H134.75V48.625C134.75 48.7908 134.684 48.9497 134.567 49.0669C134.45 49.1842 134.291 49.25 134.125 49.25H132.25V51.125H138.188C138.436 51.125 138.675 51.0262 138.85 50.8504C139.026 50.6746 139.125 50.4361 139.125 50.1875V44.875Z" fill="black"/>
<path d="M222.055 42.6641V46.2656H221.32V42.6641H222.055ZM222.062 46.6016V48.3516H218.203V49H222.297V49.5938H217.484V47.7891H221.328V47.1875H217.461V46.6016H222.062ZM218.805 43.3906C218.797 44.3281 219.477 45.1797 220.547 45.5156L220.18 46.0938C219.363 45.8281 218.75 45.2734 218.438 44.5625C218.117 45.3281 217.492 45.9375 216.656 46.2266L216.281 45.6406C217.375 45.2734 218.047 44.3594 218.047 43.3906V42.8516H218.805V43.3906ZM224.195 46.8594V47.6016H227.484V46.8594H228.227V49.5781H223.461V46.8594H224.195ZM224.195 48.9844H227.484V48.1797H224.195V48.9844ZM229.055 45.8047V46.4219H222.672V45.8047H229.055ZM226.242 43.0391C226.242 43.8438 227.359 44.625 228.703 44.7891L228.438 45.375C227.301 45.2148 226.312 44.6797 225.867 43.9375C225.41 44.6836 224.418 45.2148 223.297 45.375L223.016 44.7891C224.375 44.6172 225.484 43.8672 225.484 43.0391V42.7422H226.242V43.0391ZM230.656 47.8984V47.2031L233.156 43.3438H234.219V47.1719H234.992V47.8984H234.219V49H233.406V47.8984H230.656ZM231.562 47.1719H233.406V44.3672H233.344L231.562 47.125V47.1719Z" fill="black"/>
<rect width="11" height="12" transform="translate(253 85)" fill="white"/>
<path d="M258.333 82C253.958 82 250 85.3542 250 90.5417C250 93.8542 252.552 97.75 257.646 102.24C258.042 102.583 258.635 102.583 259.031 102.24C264.115 97.75 266.667 93.8542 266.667 90.5417C266.667 85.3542 262.708 82 258.333 82ZM256.49 93.1042L255.021 91.6354C254.924 91.539 254.848 91.4245 254.796 91.2985C254.744 91.1725 254.717 91.0374 254.717 90.901C254.717 90.7647 254.744 90.6296 254.796 90.5036C254.848 90.3776 254.924 90.2631 255.021 90.1667C255.117 90.0702 255.232 89.9937 255.358 89.9415C255.484 89.8893 255.619 89.8625 255.755 89.8625C255.892 89.8625 256.027 89.8893 256.153 89.9415C256.279 89.9937 256.393 90.0702 256.49 90.1667L257.229 90.9062L260.177 87.9583C260.274 87.8619 260.388 87.7854 260.514 87.7332C260.64 87.681 260.775 87.6541 260.911 87.6541C261.048 87.6541 261.183 87.681 261.309 87.7332C261.435 87.7854 261.549 87.8619 261.646 87.9583C261.742 88.0548 261.819 88.1693 261.871 88.2953C261.923 88.4213 261.95 88.5563 261.95 88.6927C261.95 88.8291 261.923 88.9641 261.871 89.0901C261.819 89.2162 261.742 89.3306 261.646 89.4271L257.958 93.1146C257.563 93.5104 256.896 93.5104 256.49 93.1042Z" fill="#05BAAE"/>
</g>
<defs>
<clipPath id="clip0_396_14187">
<rect x="352" width="155" height="352" rx="8" transform="rotate(90 352 0)" fill="white"/>
</clipPath>
</defs>
</svg>
